<mxfile host="app.diagrams.net" modified="2023-05-19T22:37:53.294Z" agent="Mozilla/5.0 (Windows NT 10.0; Win64; x64; rv:109.0) Gecko/20100101 Firefox/113.0" etag="it9x7GOcXmlqAXnyxHIn" version="21.3.2" type="device">
  <diagram name="Page-1" id="B5EVpfM4uwRp8s9grKYc">
    <mxGraphModel dx="3436" dy="1233" grid="1" gridSize="10" guides="1" tooltips="1" connect="1" arrows="1" fold="1" page="1" pageScale="1" pageWidth="850" pageHeight="1100" math="0" shadow="0">
      <root>
        <mxCell id="0" />
        <mxCell id="1" parent="0" />
        <mxCell id="ZoUqYp7l9cibLKx-FxY3-1" value="Medico" style="rounded=0;whiteSpace=wrap;html=1;" parent="1" vertex="1">
          <mxGeometry x="-629" y="185" width="120" height="60" as="geometry" />
        </mxCell>
        <mxCell id="ZoUqYp7l9cibLKx-FxY3-2" value="Especialidad" style="rounded=0;whiteSpace=wrap;html=1;" parent="1" vertex="1">
          <mxGeometry x="190" y="185" width="120" height="60" as="geometry" />
        </mxCell>
        <mxCell id="ZoUqYp7l9cibLKx-FxY3-3" value="Rut" style="ellipse;whiteSpace=wrap;html=1;" parent="1" vertex="1">
          <mxGeometry x="-759" y="65" width="120" height="80" as="geometry" />
        </mxCell>
        <mxCell id="ZoUqYp7l9cibLKx-FxY3-4" value="" style="endArrow=none;html=1;rounded=0;entryX=0;entryY=0.5;entryDx=0;entryDy=0;" parent="1" source="ZoUqYp7l9cibLKx-FxY3-1" target="ZoUqYp7l9cibLKx-FxY3-2" edge="1">
          <mxGeometry width="50" height="50" relative="1" as="geometry">
            <mxPoint x="-40" y="285" as="sourcePoint" />
            <mxPoint x="10" y="235" as="targetPoint" />
          </mxGeometry>
        </mxCell>
        <mxCell id="ZoUqYp7l9cibLKx-FxY3-5" value="n" style="text;html=1;strokeColor=none;fillColor=none;align=center;verticalAlign=middle;whiteSpace=wrap;rounded=0;" parent="1" vertex="1">
          <mxGeometry x="-510" y="185" width="60" height="30" as="geometry" />
        </mxCell>
        <mxCell id="ZoUqYp7l9cibLKx-FxY3-8" value="Direccion" style="ellipse;whiteSpace=wrap;html=1;" parent="1" vertex="1">
          <mxGeometry x="-489" y="35" width="120" height="80" as="geometry" />
        </mxCell>
        <mxCell id="ZoUqYp7l9cibLKx-FxY3-9" value="Nombre" style="ellipse;whiteSpace=wrap;html=1;" parent="1" vertex="1">
          <mxGeometry x="-629" width="120" height="80" as="geometry" />
        </mxCell>
        <mxCell id="ZoUqYp7l9cibLKx-FxY3-10" value="" style="endArrow=classic;html=1;rounded=0;entryX=0.25;entryY=0;entryDx=0;entryDy=0;" parent="1" source="ZoUqYp7l9cibLKx-FxY3-3" target="ZoUqYp7l9cibLKx-FxY3-1" edge="1">
          <mxGeometry width="50" height="50" relative="1" as="geometry">
            <mxPoint x="-309" y="285" as="sourcePoint" />
            <mxPoint x="-259" y="235" as="targetPoint" />
            <Array as="points" />
          </mxGeometry>
        </mxCell>
        <mxCell id="ZoUqYp7l9cibLKx-FxY3-11" value="" style="endArrow=classic;html=1;rounded=0;exitX=0.5;exitY=1;exitDx=0;exitDy=0;" parent="1" source="ZoUqYp7l9cibLKx-FxY3-9" edge="1">
          <mxGeometry width="50" height="50" relative="1" as="geometry">
            <mxPoint x="-339" y="290" as="sourcePoint" />
            <mxPoint x="-569" y="190" as="targetPoint" />
          </mxGeometry>
        </mxCell>
        <mxCell id="ZoUqYp7l9cibLKx-FxY3-12" value="" style="endArrow=classic;html=1;rounded=0;entryX=0.75;entryY=0;entryDx=0;entryDy=0;exitX=0.275;exitY=0.95;exitDx=0;exitDy=0;exitPerimeter=0;" parent="1" source="ZoUqYp7l9cibLKx-FxY3-8" target="ZoUqYp7l9cibLKx-FxY3-1" edge="1">
          <mxGeometry width="50" height="50" relative="1" as="geometry">
            <mxPoint x="-449" y="105" as="sourcePoint" />
            <mxPoint x="-259" y="235" as="targetPoint" />
          </mxGeometry>
        </mxCell>
        <mxCell id="ZoUqYp7l9cibLKx-FxY3-13" value="Codigo" style="ellipse;whiteSpace=wrap;html=1;" parent="1" vertex="1">
          <mxGeometry x="90" y="25" width="120" height="80" as="geometry" />
        </mxCell>
        <mxCell id="ZoUqYp7l9cibLKx-FxY3-14" value="Descripcion" style="ellipse;whiteSpace=wrap;html=1;" parent="1" vertex="1">
          <mxGeometry x="290" y="25" width="120" height="80" as="geometry" />
        </mxCell>
        <mxCell id="ZoUqYp7l9cibLKx-FxY3-15" value="" style="endArrow=classic;html=1;rounded=0;exitX=0.717;exitY=0.95;exitDx=0;exitDy=0;exitPerimeter=0;entryX=0.25;entryY=0;entryDx=0;entryDy=0;" parent="1" source="ZoUqYp7l9cibLKx-FxY3-13" target="ZoUqYp7l9cibLKx-FxY3-2" edge="1">
          <mxGeometry width="50" height="50" relative="1" as="geometry">
            <mxPoint x="-40" y="285" as="sourcePoint" />
            <mxPoint x="10" y="235" as="targetPoint" />
          </mxGeometry>
        </mxCell>
        <mxCell id="ZoUqYp7l9cibLKx-FxY3-16" value="" style="endArrow=classic;html=1;rounded=0;exitX=0.367;exitY=1;exitDx=0;exitDy=0;exitPerimeter=0;entryX=0.75;entryY=0;entryDx=0;entryDy=0;" parent="1" source="ZoUqYp7l9cibLKx-FxY3-14" target="ZoUqYp7l9cibLKx-FxY3-2" edge="1">
          <mxGeometry width="50" height="50" relative="1" as="geometry">
            <mxPoint x="-40" y="285" as="sourcePoint" />
            <mxPoint x="10" y="235" as="targetPoint" />
          </mxGeometry>
        </mxCell>
        <mxCell id="ZoUqYp7l9cibLKx-FxY3-17" value="Medicos" style="shape=table;startSize=30;container=1;collapsible=1;childLayout=tableLayout;fixedRows=1;rowLines=0;fontStyle=1;align=center;resizeLast=1;html=1;" parent="1" vertex="1">
          <mxGeometry x="-759" y="1120" width="279" height="150" as="geometry" />
        </mxCell>
        <mxCell id="ZoUqYp7l9cibLKx-FxY3-18" value="" style="shape=tableRow;horizontal=0;startSize=0;swimlaneHead=0;swimlaneBody=0;fillColor=none;collapsible=0;dropTarget=0;points=[[0,0.5],[1,0.5]];portConstraint=eastwest;top=0;left=0;right=0;bottom=1;" parent="ZoUqYp7l9cibLKx-FxY3-17" vertex="1">
          <mxGeometry y="30" width="279" height="30" as="geometry" />
        </mxCell>
        <mxCell id="ZoUqYp7l9cibLKx-FxY3-19" value="PK" style="shape=partialRectangle;connectable=0;fillColor=none;top=0;left=0;bottom=0;right=0;fontStyle=1;overflow=hidden;whiteSpace=wrap;html=1;" parent="ZoUqYp7l9cibLKx-FxY3-18" vertex="1">
          <mxGeometry width="30" height="30" as="geometry">
            <mxRectangle width="30" height="30" as="alternateBounds" />
          </mxGeometry>
        </mxCell>
        <mxCell id="ZoUqYp7l9cibLKx-FxY3-20" value="rut varchar (20) " style="shape=partialRectangle;connectable=0;fillColor=none;top=0;left=0;bottom=0;right=0;align=left;spacingLeft=6;fontStyle=5;overflow=hidden;whiteSpace=wrap;html=1;" parent="ZoUqYp7l9cibLKx-FxY3-18" vertex="1">
          <mxGeometry x="30" width="249" height="30" as="geometry">
            <mxRectangle width="249" height="30" as="alternateBounds" />
          </mxGeometry>
        </mxCell>
        <mxCell id="ZoUqYp7l9cibLKx-FxY3-27" value="" style="shape=tableRow;horizontal=0;startSize=0;swimlaneHead=0;swimlaneBody=0;fillColor=none;collapsible=0;dropTarget=0;points=[[0,0.5],[1,0.5]];portConstraint=eastwest;top=0;left=0;right=0;bottom=0;" parent="ZoUqYp7l9cibLKx-FxY3-17" vertex="1">
          <mxGeometry y="60" width="279" height="30" as="geometry" />
        </mxCell>
        <mxCell id="ZoUqYp7l9cibLKx-FxY3-28" value="&lt;b&gt;FK&lt;/b&gt;" style="shape=partialRectangle;connectable=0;fillColor=none;top=0;left=0;bottom=0;right=0;editable=1;overflow=hidden;whiteSpace=wrap;html=1;" parent="ZoUqYp7l9cibLKx-FxY3-27" vertex="1">
          <mxGeometry width="30" height="30" as="geometry">
            <mxRectangle width="30" height="30" as="alternateBounds" />
          </mxGeometry>
        </mxCell>
        <mxCell id="ZoUqYp7l9cibLKx-FxY3-29" value="&lt;b&gt;&lt;u&gt;especialidad_id int &lt;/u&gt;&lt;/b&gt;" style="shape=partialRectangle;connectable=0;fillColor=none;top=0;left=0;bottom=0;right=0;align=left;spacingLeft=6;overflow=hidden;whiteSpace=wrap;html=1;" parent="ZoUqYp7l9cibLKx-FxY3-27" vertex="1">
          <mxGeometry x="30" width="249" height="30" as="geometry">
            <mxRectangle width="249" height="30" as="alternateBounds" />
          </mxGeometry>
        </mxCell>
        <mxCell id="ZoUqYp7l9cibLKx-FxY3-21" value="" style="shape=tableRow;horizontal=0;startSize=0;swimlaneHead=0;swimlaneBody=0;fillColor=none;collapsible=0;dropTarget=0;points=[[0,0.5],[1,0.5]];portConstraint=eastwest;top=0;left=0;right=0;bottom=0;" parent="ZoUqYp7l9cibLKx-FxY3-17" vertex="1">
          <mxGeometry y="90" width="279" height="30" as="geometry" />
        </mxCell>
        <mxCell id="ZoUqYp7l9cibLKx-FxY3-22" value="" style="shape=partialRectangle;connectable=0;fillColor=none;top=0;left=0;bottom=0;right=0;editable=1;overflow=hidden;whiteSpace=wrap;html=1;" parent="ZoUqYp7l9cibLKx-FxY3-21" vertex="1">
          <mxGeometry width="30" height="30" as="geometry">
            <mxRectangle width="30" height="30" as="alternateBounds" />
          </mxGeometry>
        </mxCell>
        <mxCell id="ZoUqYp7l9cibLKx-FxY3-23" value="nombre varchar (50) NOT NULL" style="shape=partialRectangle;connectable=0;fillColor=none;top=0;left=0;bottom=0;right=0;align=left;spacingLeft=6;overflow=hidden;whiteSpace=wrap;html=1;" parent="ZoUqYp7l9cibLKx-FxY3-21" vertex="1">
          <mxGeometry x="30" width="249" height="30" as="geometry">
            <mxRectangle width="249" height="30" as="alternateBounds" />
          </mxGeometry>
        </mxCell>
        <mxCell id="ZoUqYp7l9cibLKx-FxY3-24" value="" style="shape=tableRow;horizontal=0;startSize=0;swimlaneHead=0;swimlaneBody=0;fillColor=none;collapsible=0;dropTarget=0;points=[[0,0.5],[1,0.5]];portConstraint=eastwest;top=0;left=0;right=0;bottom=0;" parent="ZoUqYp7l9cibLKx-FxY3-17" vertex="1">
          <mxGeometry y="120" width="279" height="30" as="geometry" />
        </mxCell>
        <mxCell id="ZoUqYp7l9cibLKx-FxY3-25" value="" style="shape=partialRectangle;connectable=0;fillColor=none;top=0;left=0;bottom=0;right=0;editable=1;overflow=hidden;whiteSpace=wrap;html=1;" parent="ZoUqYp7l9cibLKx-FxY3-24" vertex="1">
          <mxGeometry width="30" height="30" as="geometry">
            <mxRectangle width="30" height="30" as="alternateBounds" />
          </mxGeometry>
        </mxCell>
        <mxCell id="ZoUqYp7l9cibLKx-FxY3-26" value="direccion varchar (100) NOT NULL" style="shape=partialRectangle;connectable=0;fillColor=none;top=0;left=0;bottom=0;right=0;align=left;spacingLeft=6;overflow=hidden;whiteSpace=wrap;html=1;" parent="ZoUqYp7l9cibLKx-FxY3-24" vertex="1">
          <mxGeometry x="30" width="249" height="30" as="geometry">
            <mxRectangle width="249" height="30" as="alternateBounds" />
          </mxGeometry>
        </mxCell>
        <mxCell id="ZoUqYp7l9cibLKx-FxY3-30" value="Especialidades" style="shape=table;startSize=40;container=1;collapsible=1;childLayout=tableLayout;fixedRows=1;rowLines=0;fontStyle=1;align=center;resizeLast=1;html=1;whiteSpace=wrap;" parent="1" vertex="1">
          <mxGeometry x="-190" y="1440" width="250" height="160" as="geometry" />
        </mxCell>
        <mxCell id="ZoUqYp7l9cibLKx-FxY3-31" value="" style="shape=tableRow;horizontal=0;startSize=0;swimlaneHead=0;swimlaneBody=0;fillColor=none;collapsible=0;dropTarget=0;points=[[0,0.5],[1,0.5]];portConstraint=eastwest;top=0;left=0;right=0;bottom=0;html=1;" parent="ZoUqYp7l9cibLKx-FxY3-30" vertex="1">
          <mxGeometry y="40" width="250" height="30" as="geometry" />
        </mxCell>
        <mxCell id="ZoUqYp7l9cibLKx-FxY3-32" value="PK" style="shape=partialRectangle;connectable=0;fillColor=none;top=0;left=0;bottom=0;right=0;fontStyle=1;overflow=hidden;html=1;whiteSpace=wrap;" parent="ZoUqYp7l9cibLKx-FxY3-31" vertex="1">
          <mxGeometry width="60" height="30" as="geometry">
            <mxRectangle width="60" height="30" as="alternateBounds" />
          </mxGeometry>
        </mxCell>
        <mxCell id="ZoUqYp7l9cibLKx-FxY3-33" value="codigo int" style="shape=partialRectangle;connectable=0;fillColor=none;top=0;left=0;bottom=0;right=0;align=left;spacingLeft=6;fontStyle=5;overflow=hidden;html=1;whiteSpace=wrap;" parent="ZoUqYp7l9cibLKx-FxY3-31" vertex="1">
          <mxGeometry x="60" width="190" height="30" as="geometry">
            <mxRectangle width="190" height="30" as="alternateBounds" />
          </mxGeometry>
        </mxCell>
        <mxCell id="ZoUqYp7l9cibLKx-FxY3-34" value="" style="shape=tableRow;horizontal=0;startSize=0;swimlaneHead=0;swimlaneBody=0;fillColor=none;collapsible=0;dropTarget=0;points=[[0,0.5],[1,0.5]];portConstraint=eastwest;top=0;left=0;right=0;bottom=1;html=1;" parent="ZoUqYp7l9cibLKx-FxY3-30" vertex="1">
          <mxGeometry y="70" width="250" height="20" as="geometry" />
        </mxCell>
        <mxCell id="ZoUqYp7l9cibLKx-FxY3-35" value="" style="shape=partialRectangle;connectable=0;fillColor=none;top=0;left=0;bottom=0;right=0;fontStyle=1;overflow=hidden;html=1;whiteSpace=wrap;" parent="ZoUqYp7l9cibLKx-FxY3-34" vertex="1">
          <mxGeometry width="60" height="20" as="geometry">
            <mxRectangle width="60" height="20" as="alternateBounds" />
          </mxGeometry>
        </mxCell>
        <mxCell id="ZoUqYp7l9cibLKx-FxY3-36" value="" style="shape=partialRectangle;connectable=0;fillColor=none;top=0;left=0;bottom=0;right=0;align=left;spacingLeft=6;fontStyle=5;overflow=hidden;html=1;whiteSpace=wrap;" parent="ZoUqYp7l9cibLKx-FxY3-34" vertex="1">
          <mxGeometry x="60" width="190" height="20" as="geometry">
            <mxRectangle width="190" height="20" as="alternateBounds" />
          </mxGeometry>
        </mxCell>
        <mxCell id="ZoUqYp7l9cibLKx-FxY3-37" value="" style="shape=tableRow;horizontal=0;startSize=0;swimlaneHead=0;swimlaneBody=0;fillColor=none;collapsible=0;dropTarget=0;points=[[0,0.5],[1,0.5]];portConstraint=eastwest;top=0;left=0;right=0;bottom=0;html=1;" parent="ZoUqYp7l9cibLKx-FxY3-30" vertex="1">
          <mxGeometry y="90" width="250" height="40" as="geometry" />
        </mxCell>
        <mxCell id="ZoUqYp7l9cibLKx-FxY3-38" value="" style="shape=partialRectangle;connectable=0;fillColor=none;top=0;left=0;bottom=0;right=0;editable=1;overflow=hidden;html=1;whiteSpace=wrap;" parent="ZoUqYp7l9cibLKx-FxY3-37" vertex="1">
          <mxGeometry width="60" height="40" as="geometry">
            <mxRectangle width="60" height="40" as="alternateBounds" />
          </mxGeometry>
        </mxCell>
        <mxCell id="ZoUqYp7l9cibLKx-FxY3-39" value="descripcion varchar (100) NOT NULL" style="shape=partialRectangle;connectable=0;fillColor=none;top=0;left=0;bottom=0;right=0;align=left;spacingLeft=6;overflow=hidden;html=1;whiteSpace=wrap;" parent="ZoUqYp7l9cibLKx-FxY3-37" vertex="1">
          <mxGeometry x="60" width="190" height="40" as="geometry">
            <mxRectangle width="190" height="40" as="alternateBounds" />
          </mxGeometry>
        </mxCell>
        <mxCell id="ZoUqYp7l9cibLKx-FxY3-40" value="" style="shape=tableRow;horizontal=0;startSize=0;swimlaneHead=0;swimlaneBody=0;fillColor=none;collapsible=0;dropTarget=0;points=[[0,0.5],[1,0.5]];portConstraint=eastwest;top=0;left=0;right=0;bottom=0;html=1;" parent="ZoUqYp7l9cibLKx-FxY3-30" vertex="1">
          <mxGeometry y="130" width="250" height="30" as="geometry" />
        </mxCell>
        <mxCell id="ZoUqYp7l9cibLKx-FxY3-41" value="" style="shape=partialRectangle;connectable=0;fillColor=none;top=0;left=0;bottom=0;right=0;editable=1;overflow=hidden;html=1;whiteSpace=wrap;" parent="ZoUqYp7l9cibLKx-FxY3-40" vertex="1">
          <mxGeometry width="60" height="30" as="geometry">
            <mxRectangle width="60" height="30" as="alternateBounds" />
          </mxGeometry>
        </mxCell>
        <mxCell id="ZoUqYp7l9cibLKx-FxY3-42" value="" style="shape=partialRectangle;connectable=0;fillColor=none;top=0;left=0;bottom=0;right=0;align=left;spacingLeft=6;overflow=hidden;html=1;whiteSpace=wrap;" parent="ZoUqYp7l9cibLKx-FxY3-40" vertex="1">
          <mxGeometry x="60" width="190" height="30" as="geometry">
            <mxRectangle width="190" height="30" as="alternateBounds" />
          </mxGeometry>
        </mxCell>
        <mxCell id="ZoUqYp7l9cibLKx-FxY3-49" value="0" style="text;html=1;strokeColor=none;fillColor=none;align=center;verticalAlign=middle;whiteSpace=wrap;rounded=0;" parent="1" vertex="1">
          <mxGeometry x="100" y="185" width="60" height="30" as="geometry" />
        </mxCell>
        <mxCell id="ZoUqYp7l9cibLKx-FxY3-52" value="" style="edgeStyle=entityRelationEdgeStyle;fontSize=12;html=1;endArrow=ERmany;rounded=0;entryX=1;entryY=0.5;entryDx=0;entryDy=0;exitX=0;exitY=0.5;exitDx=0;exitDy=0;" parent="1" source="ZoUqYp7l9cibLKx-FxY3-37" target="ZoUqYp7l9cibLKx-FxY3-24" edge="1">
          <mxGeometry width="100" height="100" relative="1" as="geometry">
            <mxPoint x="340" y="820" as="sourcePoint" />
            <mxPoint x="460" y="590" as="targetPoint" />
          </mxGeometry>
        </mxCell>
        <mxCell id="ZoUqYp7l9cibLKx-FxY3-53" value="&lt;p&gt;create table medicos (&lt;/p&gt;&lt;p&gt;rut varchar (50) PRIMARY KEY, &lt;br&gt;&lt;/p&gt;&lt;p&gt;nombre varchar (50) NOT NULL,&lt;/p&gt;&lt;p&gt;direccion varchar (100) NOT NULL,&lt;/p&gt;&lt;p&gt;especialidad_id int,&lt;/p&gt;&lt;p&gt;FOREIGN KEY (especialidad_id) REFERENCES especialidades (codigo)&lt;br&gt;&lt;/p&gt;&lt;p&gt;);&lt;br&gt;&lt;/p&gt;" style="text;html=1;strokeColor=none;fillColor=none;spacing=5;spacingTop=-20;whiteSpace=wrap;overflow=hidden;rounded=0;" parent="1" vertex="1">
          <mxGeometry x="-779" y="1690" width="459" height="210" as="geometry" />
        </mxCell>
        <mxCell id="ZoUqYp7l9cibLKx-FxY3-54" value="&lt;p&gt;CREATE TABLE especialidades (&lt;/p&gt;&lt;p&gt;codigo PRIMARY KEY, &lt;br&gt;&lt;/p&gt;&lt;p&gt;descripcion varchar(100) NOT NULL&lt;br&gt;&lt;/p&gt;&lt;p&gt;);&lt;br&gt;&lt;/p&gt;" style="text;html=1;strokeColor=none;fillColor=none;spacing=5;spacingTop=-20;whiteSpace=wrap;overflow=hidden;rounded=0;" parent="1" vertex="1">
          <mxGeometry x="-779" y="1950" width="230" height="120" as="geometry" />
        </mxCell>
        <mxCell id="ZoUqYp7l9cibLKx-FxY3-55" value="Consultas" style="rounded=0;whiteSpace=wrap;html=1;" parent="1" vertex="1">
          <mxGeometry x="-660" y="530" width="140" height="60" as="geometry" />
        </mxCell>
        <mxCell id="ZoUqYp7l9cibLKx-FxY3-56" value="Paciente" style="rounded=0;whiteSpace=wrap;html=1;" parent="1" vertex="1">
          <mxGeometry x="145" y="540" width="120" height="60" as="geometry" />
        </mxCell>
        <mxCell id="ZoUqYp7l9cibLKx-FxY3-57" value="" style="endArrow=none;html=1;rounded=0;entryX=0.5;entryY=1;entryDx=0;entryDy=0;exitX=0.5;exitY=0;exitDx=0;exitDy=0;" parent="1" source="ZoUqYp7l9cibLKx-FxY3-62" target="ZoUqYp7l9cibLKx-FxY3-1" edge="1">
          <mxGeometry width="50" height="50" relative="1" as="geometry">
            <mxPoint x="-19" y="255" as="sourcePoint" />
            <mxPoint x="31" y="205" as="targetPoint" />
          </mxGeometry>
        </mxCell>
        <mxCell id="ZoUqYp7l9cibLKx-FxY3-58" value="" style="endArrow=none;html=1;rounded=0;exitX=1;exitY=0.5;exitDx=0;exitDy=0;entryX=0;entryY=0.5;entryDx=0;entryDy=0;" parent="1" source="ZoUqYp7l9cibLKx-FxY3-55" target="ZoUqYp7l9cibLKx-FxY3-56" edge="1">
          <mxGeometry width="50" height="50" relative="1" as="geometry">
            <mxPoint x="-40" y="255" as="sourcePoint" />
            <mxPoint x="10" y="205" as="targetPoint" />
          </mxGeometry>
        </mxCell>
        <mxCell id="ZoUqYp7l9cibLKx-FxY3-59" value="n" style="text;html=1;strokeColor=none;fillColor=none;align=center;verticalAlign=middle;whiteSpace=wrap;rounded=0;" parent="1" vertex="1">
          <mxGeometry x="-520" y="530" width="60" height="30" as="geometry" />
        </mxCell>
        <mxCell id="ZoUqYp7l9cibLKx-FxY3-60" value="n" style="text;html=1;strokeColor=none;fillColor=none;align=center;verticalAlign=middle;whiteSpace=wrap;rounded=0;" parent="1" vertex="1">
          <mxGeometry x="-600" y="490" width="60" height="30" as="geometry" />
        </mxCell>
        <mxCell id="ZoUqYp7l9cibLKx-FxY3-63" value="1" style="text;html=1;strokeColor=none;fillColor=none;align=center;verticalAlign=middle;whiteSpace=wrap;rounded=0;rotation=0;" parent="1" vertex="1">
          <mxGeometry x="80" y="545" width="60" height="30" as="geometry" />
        </mxCell>
        <mxCell id="ZoUqYp7l9cibLKx-FxY3-64" value="Nombre" style="ellipse;whiteSpace=wrap;html=1;" parent="1" vertex="1">
          <mxGeometry x="255" y="660" width="120" height="80" as="geometry" />
        </mxCell>
        <mxCell id="ZoUqYp7l9cibLKx-FxY3-66" value="Rut" style="ellipse;whiteSpace=wrap;html=1;" parent="1" vertex="1">
          <mxGeometry x="15" y="650" width="120" height="80" as="geometry" />
        </mxCell>
        <mxCell id="ZoUqYp7l9cibLKx-FxY3-67" value="Direccion" style="ellipse;whiteSpace=wrap;html=1;" parent="1" vertex="1">
          <mxGeometry x="375" y="530" width="120" height="80" as="geometry" />
        </mxCell>
        <mxCell id="ZoUqYp7l9cibLKx-FxY3-68" value="" style="endArrow=classic;html=1;rounded=0;exitX=1;exitY=0;exitDx=0;exitDy=0;entryX=0.25;entryY=1;entryDx=0;entryDy=0;" parent="1" source="ZoUqYp7l9cibLKx-FxY3-66" target="ZoUqYp7l9cibLKx-FxY3-56" edge="1">
          <mxGeometry width="50" height="50" relative="1" as="geometry">
            <mxPoint x="65" y="570" as="sourcePoint" />
            <mxPoint x="115" y="520" as="targetPoint" />
          </mxGeometry>
        </mxCell>
        <mxCell id="ZoUqYp7l9cibLKx-FxY3-69" value="" style="endArrow=classic;html=1;rounded=0;entryX=0.75;entryY=1;entryDx=0;entryDy=0;" parent="1" source="ZoUqYp7l9cibLKx-FxY3-64" target="ZoUqYp7l9cibLKx-FxY3-56" edge="1">
          <mxGeometry width="50" height="50" relative="1" as="geometry">
            <mxPoint x="65" y="570" as="sourcePoint" />
            <mxPoint x="115" y="520" as="targetPoint" />
          </mxGeometry>
        </mxCell>
        <mxCell id="ZoUqYp7l9cibLKx-FxY3-70" value="" style="endArrow=classic;html=1;rounded=0;exitX=0;exitY=0.5;exitDx=0;exitDy=0;entryX=1;entryY=0.5;entryDx=0;entryDy=0;" parent="1" source="ZoUqYp7l9cibLKx-FxY3-67" target="ZoUqYp7l9cibLKx-FxY3-56" edge="1">
          <mxGeometry width="50" height="50" relative="1" as="geometry">
            <mxPoint x="65" y="570" as="sourcePoint" />
            <mxPoint x="115" y="520" as="targetPoint" />
          </mxGeometry>
        </mxCell>
        <mxCell id="ZoUqYp7l9cibLKx-FxY3-71" value="Fecha" style="ellipse;whiteSpace=wrap;html=1;" parent="1" vertex="1">
          <mxGeometry x="-650" y="650" width="120" height="80" as="geometry" />
        </mxCell>
        <mxCell id="ZoUqYp7l9cibLKx-FxY3-72" value="" style="endArrow=classic;html=1;rounded=0;entryX=0.5;entryY=1;entryDx=0;entryDy=0;" parent="1" source="ZoUqYp7l9cibLKx-FxY3-71" target="ZoUqYp7l9cibLKx-FxY3-55" edge="1">
          <mxGeometry width="50" height="50" relative="1" as="geometry">
            <mxPoint x="-330" y="560" as="sourcePoint" />
            <mxPoint x="-280" y="510" as="targetPoint" />
          </mxGeometry>
        </mxCell>
        <mxCell id="MTo1OBXcnivIiBtlRkqN-1" value="Licencia" style="rounded=0;whiteSpace=wrap;html=1;" parent="1" vertex="1">
          <mxGeometry x="-145" y="355" width="120" height="60" as="geometry" />
        </mxCell>
        <mxCell id="MTo1OBXcnivIiBtlRkqN-2" value="Licencias" style="shape=table;startSize=30;container=1;collapsible=1;childLayout=tableLayout;fixedRows=1;rowLines=0;fontStyle=1;align=center;resizeLast=1;html=1;whiteSpace=wrap;" parent="1" vertex="1">
          <mxGeometry x="-220" y="1120" width="339" height="210" as="geometry" />
        </mxCell>
        <mxCell id="MTo1OBXcnivIiBtlRkqN-3" value="" style="shape=tableRow;horizontal=0;startSize=0;swimlaneHead=0;swimlaneBody=0;fillColor=none;collapsible=0;dropTarget=0;points=[[0,0.5],[1,0.5]];portConstraint=eastwest;top=0;left=0;right=0;bottom=0;html=1;" parent="MTo1OBXcnivIiBtlRkqN-2" vertex="1">
          <mxGeometry y="30" width="339" height="30" as="geometry" />
        </mxCell>
        <mxCell id="MTo1OBXcnivIiBtlRkqN-4" value="PK" style="shape=partialRectangle;connectable=0;fillColor=none;top=0;left=0;bottom=0;right=0;fontStyle=1;overflow=hidden;html=1;whiteSpace=wrap;" parent="MTo1OBXcnivIiBtlRkqN-3" vertex="1">
          <mxGeometry width="60" height="30" as="geometry">
            <mxRectangle width="60" height="30" as="alternateBounds" />
          </mxGeometry>
        </mxCell>
        <mxCell id="MTo1OBXcnivIiBtlRkqN-5" value="codigo int" style="shape=partialRectangle;connectable=0;fillColor=none;top=0;left=0;bottom=0;right=0;align=left;spacingLeft=6;fontStyle=5;overflow=hidden;html=1;whiteSpace=wrap;" parent="MTo1OBXcnivIiBtlRkqN-3" vertex="1">
          <mxGeometry x="60" width="279" height="30" as="geometry">
            <mxRectangle width="279" height="30" as="alternateBounds" />
          </mxGeometry>
        </mxCell>
        <mxCell id="MTo1OBXcnivIiBtlRkqN-6" value="" style="shape=tableRow;horizontal=0;startSize=0;swimlaneHead=0;swimlaneBody=0;fillColor=none;collapsible=0;dropTarget=0;points=[[0,0.5],[1,0.5]];portConstraint=eastwest;top=0;left=0;right=0;bottom=1;html=1;" parent="MTo1OBXcnivIiBtlRkqN-2" vertex="1">
          <mxGeometry y="60" width="339" height="30" as="geometry" />
        </mxCell>
        <mxCell id="MTo1OBXcnivIiBtlRkqN-7" value="FK" style="shape=partialRectangle;connectable=0;fillColor=none;top=0;left=0;bottom=0;right=0;fontStyle=1;overflow=hidden;html=1;whiteSpace=wrap;" parent="MTo1OBXcnivIiBtlRkqN-6" vertex="1">
          <mxGeometry width="60" height="30" as="geometry">
            <mxRectangle width="60" height="30" as="alternateBounds" />
          </mxGeometry>
        </mxCell>
        <mxCell id="MTo1OBXcnivIiBtlRkqN-8" value="paciente_rut varchar (20) NOT NULL" style="shape=partialRectangle;connectable=0;fillColor=none;top=0;left=0;bottom=0;right=0;align=left;spacingLeft=6;fontStyle=5;overflow=hidden;html=1;whiteSpace=wrap;" parent="MTo1OBXcnivIiBtlRkqN-6" vertex="1">
          <mxGeometry x="60" width="279" height="30" as="geometry">
            <mxRectangle width="279" height="30" as="alternateBounds" />
          </mxGeometry>
        </mxCell>
        <mxCell id="NrHLCTWZxOmj00U2dats-55" value="" style="shape=tableRow;horizontal=0;startSize=0;swimlaneHead=0;swimlaneBody=0;fillColor=none;collapsible=0;dropTarget=0;points=[[0,0.5],[1,0.5]];portConstraint=eastwest;top=0;left=0;right=0;bottom=1;html=1;" vertex="1" parent="MTo1OBXcnivIiBtlRkqN-2">
          <mxGeometry y="90" width="339" height="30" as="geometry" />
        </mxCell>
        <mxCell id="NrHLCTWZxOmj00U2dats-56" value="FK" style="shape=partialRectangle;connectable=0;fillColor=none;top=0;left=0;bottom=0;right=0;fontStyle=1;overflow=hidden;html=1;whiteSpace=wrap;" vertex="1" parent="NrHLCTWZxOmj00U2dats-55">
          <mxGeometry width="60" height="30" as="geometry">
            <mxRectangle width="60" height="30" as="alternateBounds" />
          </mxGeometry>
        </mxCell>
        <mxCell id="NrHLCTWZxOmj00U2dats-57" value="medico_rut varchar (20) NOT NULL" style="shape=partialRectangle;connectable=0;fillColor=none;top=0;left=0;bottom=0;right=0;align=left;spacingLeft=6;fontStyle=5;overflow=hidden;html=1;whiteSpace=wrap;" vertex="1" parent="NrHLCTWZxOmj00U2dats-55">
          <mxGeometry x="60" width="279" height="30" as="geometry">
            <mxRectangle width="279" height="30" as="alternateBounds" />
          </mxGeometry>
        </mxCell>
        <mxCell id="MTo1OBXcnivIiBtlRkqN-9" value="" style="shape=tableRow;horizontal=0;startSize=0;swimlaneHead=0;swimlaneBody=0;fillColor=none;collapsible=0;dropTarget=0;points=[[0,0.5],[1,0.5]];portConstraint=eastwest;top=0;left=0;right=0;bottom=0;html=1;" parent="MTo1OBXcnivIiBtlRkqN-2" vertex="1">
          <mxGeometry y="120" width="339" height="30" as="geometry" />
        </mxCell>
        <mxCell id="MTo1OBXcnivIiBtlRkqN-10" value="" style="shape=partialRectangle;connectable=0;fillColor=none;top=0;left=0;bottom=0;right=0;editable=1;overflow=hidden;html=1;whiteSpace=wrap;" parent="MTo1OBXcnivIiBtlRkqN-9" vertex="1">
          <mxGeometry width="60" height="30" as="geometry">
            <mxRectangle width="60" height="30" as="alternateBounds" />
          </mxGeometry>
        </mxCell>
        <mxCell id="MTo1OBXcnivIiBtlRkqN-11" value="fecha_inicio date NOT NULL" style="shape=partialRectangle;connectable=0;fillColor=none;top=0;left=0;bottom=0;right=0;align=left;spacingLeft=6;overflow=hidden;html=1;whiteSpace=wrap;" parent="MTo1OBXcnivIiBtlRkqN-9" vertex="1">
          <mxGeometry x="60" width="279" height="30" as="geometry">
            <mxRectangle width="279" height="30" as="alternateBounds" />
          </mxGeometry>
        </mxCell>
        <mxCell id="NrHLCTWZxOmj00U2dats-59" value="" style="shape=tableRow;horizontal=0;startSize=0;swimlaneHead=0;swimlaneBody=0;fillColor=none;collapsible=0;dropTarget=0;points=[[0,0.5],[1,0.5]];portConstraint=eastwest;top=0;left=0;right=0;bottom=0;html=1;" vertex="1" parent="MTo1OBXcnivIiBtlRkqN-2">
          <mxGeometry y="150" width="339" height="30" as="geometry" />
        </mxCell>
        <mxCell id="NrHLCTWZxOmj00U2dats-60" value="" style="shape=partialRectangle;connectable=0;fillColor=none;top=0;left=0;bottom=0;right=0;editable=1;overflow=hidden;html=1;whiteSpace=wrap;" vertex="1" parent="NrHLCTWZxOmj00U2dats-59">
          <mxGeometry width="60" height="30" as="geometry">
            <mxRectangle width="60" height="30" as="alternateBounds" />
          </mxGeometry>
        </mxCell>
        <mxCell id="NrHLCTWZxOmj00U2dats-61" value="fecha_termino date NOT NULL" style="shape=partialRectangle;connectable=0;fillColor=none;top=0;left=0;bottom=0;right=0;align=left;spacingLeft=6;overflow=hidden;html=1;whiteSpace=wrap;" vertex="1" parent="NrHLCTWZxOmj00U2dats-59">
          <mxGeometry x="60" width="279" height="30" as="geometry">
            <mxRectangle width="279" height="30" as="alternateBounds" />
          </mxGeometry>
        </mxCell>
        <mxCell id="MTo1OBXcnivIiBtlRkqN-12" value="" style="shape=tableRow;horizontal=0;startSize=0;swimlaneHead=0;swimlaneBody=0;fillColor=none;collapsible=0;dropTarget=0;points=[[0,0.5],[1,0.5]];portConstraint=eastwest;top=0;left=0;right=0;bottom=0;html=1;" parent="MTo1OBXcnivIiBtlRkqN-2" vertex="1">
          <mxGeometry y="180" width="339" height="30" as="geometry" />
        </mxCell>
        <mxCell id="MTo1OBXcnivIiBtlRkqN-13" value="" style="shape=partialRectangle;connectable=0;fillColor=none;top=0;left=0;bottom=0;right=0;editable=1;overflow=hidden;html=1;whiteSpace=wrap;" parent="MTo1OBXcnivIiBtlRkqN-12" vertex="1">
          <mxGeometry width="60" height="30" as="geometry">
            <mxRectangle width="60" height="30" as="alternateBounds" />
          </mxGeometry>
        </mxCell>
        <mxCell id="MTo1OBXcnivIiBtlRkqN-14" value="diagnostico varchar NOT NULL" style="shape=partialRectangle;connectable=0;fillColor=none;top=0;left=0;bottom=0;right=0;align=left;spacingLeft=6;overflow=hidden;html=1;whiteSpace=wrap;" parent="MTo1OBXcnivIiBtlRkqN-12" vertex="1">
          <mxGeometry x="60" width="279" height="30" as="geometry">
            <mxRectangle width="279" height="30" as="alternateBounds" />
          </mxGeometry>
        </mxCell>
        <mxCell id="MTo1OBXcnivIiBtlRkqN-19" value="Pacientes" style="shape=table;startSize=30;container=1;collapsible=1;childLayout=tableLayout;fixedRows=1;rowLines=0;fontStyle=1;align=center;resizeLast=1;html=1;" parent="1" vertex="1">
          <mxGeometry x="351" y="1090" width="230" height="150" as="geometry" />
        </mxCell>
        <mxCell id="MTo1OBXcnivIiBtlRkqN-20" value="" style="shape=tableRow;horizontal=0;startSize=0;swimlaneHead=0;swimlaneBody=0;fillColor=none;collapsible=0;dropTarget=0;points=[[0,0.5],[1,0.5]];portConstraint=eastwest;top=0;left=0;right=0;bottom=1;" parent="MTo1OBXcnivIiBtlRkqN-19" vertex="1">
          <mxGeometry y="30" width="230" height="30" as="geometry" />
        </mxCell>
        <mxCell id="MTo1OBXcnivIiBtlRkqN-21" value="PK" style="shape=partialRectangle;connectable=0;fillColor=none;top=0;left=0;bottom=0;right=0;fontStyle=1;overflow=hidden;whiteSpace=wrap;html=1;" parent="MTo1OBXcnivIiBtlRkqN-20" vertex="1">
          <mxGeometry width="30" height="30" as="geometry">
            <mxRectangle width="30" height="30" as="alternateBounds" />
          </mxGeometry>
        </mxCell>
        <mxCell id="MTo1OBXcnivIiBtlRkqN-22" value="rut varchar (20)" style="shape=partialRectangle;connectable=0;fillColor=none;top=0;left=0;bottom=0;right=0;align=left;spacingLeft=6;fontStyle=5;overflow=hidden;whiteSpace=wrap;html=1;" parent="MTo1OBXcnivIiBtlRkqN-20" vertex="1">
          <mxGeometry x="30" width="200" height="30" as="geometry">
            <mxRectangle width="200" height="30" as="alternateBounds" />
          </mxGeometry>
        </mxCell>
        <mxCell id="MTo1OBXcnivIiBtlRkqN-23" value="" style="shape=tableRow;horizontal=0;startSize=0;swimlaneHead=0;swimlaneBody=0;fillColor=none;collapsible=0;dropTarget=0;points=[[0,0.5],[1,0.5]];portConstraint=eastwest;top=0;left=0;right=0;bottom=0;" parent="MTo1OBXcnivIiBtlRkqN-19" vertex="1">
          <mxGeometry y="60" width="230" height="30" as="geometry" />
        </mxCell>
        <mxCell id="MTo1OBXcnivIiBtlRkqN-24" value="" style="shape=partialRectangle;connectable=0;fillColor=none;top=0;left=0;bottom=0;right=0;editable=1;overflow=hidden;whiteSpace=wrap;html=1;" parent="MTo1OBXcnivIiBtlRkqN-23" vertex="1">
          <mxGeometry width="30" height="30" as="geometry">
            <mxRectangle width="30" height="30" as="alternateBounds" />
          </mxGeometry>
        </mxCell>
        <mxCell id="MTo1OBXcnivIiBtlRkqN-25" value="nombre varchar (50) NOT NULL" style="shape=partialRectangle;connectable=0;fillColor=none;top=0;left=0;bottom=0;right=0;align=left;spacingLeft=6;overflow=hidden;whiteSpace=wrap;html=1;" parent="MTo1OBXcnivIiBtlRkqN-23" vertex="1">
          <mxGeometry x="30" width="200" height="30" as="geometry">
            <mxRectangle width="200" height="30" as="alternateBounds" />
          </mxGeometry>
        </mxCell>
        <mxCell id="MTo1OBXcnivIiBtlRkqN-26" value="" style="shape=tableRow;horizontal=0;startSize=0;swimlaneHead=0;swimlaneBody=0;fillColor=none;collapsible=0;dropTarget=0;points=[[0,0.5],[1,0.5]];portConstraint=eastwest;top=0;left=0;right=0;bottom=0;" parent="MTo1OBXcnivIiBtlRkqN-19" vertex="1">
          <mxGeometry y="90" width="230" height="30" as="geometry" />
        </mxCell>
        <mxCell id="MTo1OBXcnivIiBtlRkqN-27" value="" style="shape=partialRectangle;connectable=0;fillColor=none;top=0;left=0;bottom=0;right=0;editable=1;overflow=hidden;whiteSpace=wrap;html=1;" parent="MTo1OBXcnivIiBtlRkqN-26" vertex="1">
          <mxGeometry width="30" height="30" as="geometry">
            <mxRectangle width="30" height="30" as="alternateBounds" />
          </mxGeometry>
        </mxCell>
        <mxCell id="MTo1OBXcnivIiBtlRkqN-28" value="direccion varchar (100) NOT NULL" style="shape=partialRectangle;connectable=0;fillColor=none;top=0;left=0;bottom=0;right=0;align=left;spacingLeft=6;overflow=hidden;whiteSpace=wrap;html=1;" parent="MTo1OBXcnivIiBtlRkqN-26" vertex="1">
          <mxGeometry x="30" width="200" height="30" as="geometry">
            <mxRectangle width="200" height="30" as="alternateBounds" />
          </mxGeometry>
        </mxCell>
        <mxCell id="MTo1OBXcnivIiBtlRkqN-29" value="" style="shape=tableRow;horizontal=0;startSize=0;swimlaneHead=0;swimlaneBody=0;fillColor=none;collapsible=0;dropTarget=0;points=[[0,0.5],[1,0.5]];portConstraint=eastwest;top=0;left=0;right=0;bottom=0;" parent="MTo1OBXcnivIiBtlRkqN-19" vertex="1">
          <mxGeometry y="120" width="230" height="30" as="geometry" />
        </mxCell>
        <mxCell id="MTo1OBXcnivIiBtlRkqN-30" value="" style="shape=partialRectangle;connectable=0;fillColor=none;top=0;left=0;bottom=0;right=0;editable=1;overflow=hidden;whiteSpace=wrap;html=1;" parent="MTo1OBXcnivIiBtlRkqN-29" vertex="1">
          <mxGeometry width="30" height="30" as="geometry">
            <mxRectangle width="30" height="30" as="alternateBounds" />
          </mxGeometry>
        </mxCell>
        <mxCell id="MTo1OBXcnivIiBtlRkqN-31" value="" style="shape=partialRectangle;connectable=0;fillColor=none;top=0;left=0;bottom=0;right=0;align=left;spacingLeft=6;overflow=hidden;whiteSpace=wrap;html=1;" parent="MTo1OBXcnivIiBtlRkqN-29" vertex="1">
          <mxGeometry x="30" width="200" height="30" as="geometry">
            <mxRectangle width="200" height="30" as="alternateBounds" />
          </mxGeometry>
        </mxCell>
        <mxCell id="MTo1OBXcnivIiBtlRkqN-32" value="Consultas" style="shape=table;startSize=30;container=1;collapsible=1;childLayout=tableLayout;fixedRows=1;rowLines=0;fontStyle=1;align=center;resizeLast=1;html=1;" parent="1" vertex="1">
          <mxGeometry x="-215" y="830" width="295" height="210" as="geometry" />
        </mxCell>
        <mxCell id="MTo1OBXcnivIiBtlRkqN-33" value="" style="shape=tableRow;horizontal=0;startSize=0;swimlaneHead=0;swimlaneBody=0;fillColor=none;collapsible=0;dropTarget=0;points=[[0,0.5],[1,0.5]];portConstraint=eastwest;top=0;left=0;right=0;bottom=1;" parent="MTo1OBXcnivIiBtlRkqN-32" vertex="1">
          <mxGeometry y="30" width="295" height="30" as="geometry" />
        </mxCell>
        <mxCell id="MTo1OBXcnivIiBtlRkqN-34" value="PK" style="shape=partialRectangle;connectable=0;fillColor=none;top=0;left=0;bottom=0;right=0;fontStyle=1;overflow=hidden;whiteSpace=wrap;html=1;" parent="MTo1OBXcnivIiBtlRkqN-33" vertex="1">
          <mxGeometry width="30" height="30" as="geometry">
            <mxRectangle width="30" height="30" as="alternateBounds" />
          </mxGeometry>
        </mxCell>
        <mxCell id="MTo1OBXcnivIiBtlRkqN-35" value="id serial" style="shape=partialRectangle;connectable=0;fillColor=none;top=0;left=0;bottom=0;right=0;align=left;spacingLeft=6;fontStyle=5;overflow=hidden;whiteSpace=wrap;html=1;" parent="MTo1OBXcnivIiBtlRkqN-33" vertex="1">
          <mxGeometry x="30" width="265" height="30" as="geometry">
            <mxRectangle width="265" height="30" as="alternateBounds" />
          </mxGeometry>
        </mxCell>
        <mxCell id="MTo1OBXcnivIiBtlRkqN-39" value="" style="shape=tableRow;horizontal=0;startSize=0;swimlaneHead=0;swimlaneBody=0;fillColor=none;collapsible=0;dropTarget=0;points=[[0,0.5],[1,0.5]];portConstraint=eastwest;top=0;left=0;right=0;bottom=0;" parent="MTo1OBXcnivIiBtlRkqN-32" vertex="1">
          <mxGeometry y="60" width="295" height="30" as="geometry" />
        </mxCell>
        <mxCell id="MTo1OBXcnivIiBtlRkqN-40" value="FK" style="shape=partialRectangle;connectable=0;fillColor=none;top=0;left=0;bottom=0;right=0;editable=1;overflow=hidden;whiteSpace=wrap;html=1;fontStyle=1" parent="MTo1OBXcnivIiBtlRkqN-39" vertex="1">
          <mxGeometry width="30" height="30" as="geometry">
            <mxRectangle width="30" height="30" as="alternateBounds" />
          </mxGeometry>
        </mxCell>
        <mxCell id="MTo1OBXcnivIiBtlRkqN-41" value="paciente_rut varchar (20)&amp;nbsp; NOT NULL" style="shape=partialRectangle;connectable=0;fillColor=none;top=0;left=0;bottom=0;right=0;align=left;spacingLeft=6;overflow=hidden;whiteSpace=wrap;html=1;fontStyle=1" parent="MTo1OBXcnivIiBtlRkqN-39" vertex="1">
          <mxGeometry x="30" width="265" height="30" as="geometry">
            <mxRectangle width="265" height="30" as="alternateBounds" />
          </mxGeometry>
        </mxCell>
        <mxCell id="NrHLCTWZxOmj00U2dats-15" value="" style="shape=tableRow;horizontal=0;startSize=0;swimlaneHead=0;swimlaneBody=0;fillColor=none;collapsible=0;dropTarget=0;points=[[0,0.5],[1,0.5]];portConstraint=eastwest;top=0;left=0;right=0;bottom=0;" vertex="1" parent="MTo1OBXcnivIiBtlRkqN-32">
          <mxGeometry y="90" width="295" height="30" as="geometry" />
        </mxCell>
        <mxCell id="NrHLCTWZxOmj00U2dats-16" value="FK" style="shape=partialRectangle;connectable=0;fillColor=none;top=0;left=0;bottom=0;right=0;editable=1;overflow=hidden;whiteSpace=wrap;html=1;fontStyle=1" vertex="1" parent="NrHLCTWZxOmj00U2dats-15">
          <mxGeometry width="30" height="30" as="geometry">
            <mxRectangle width="30" height="30" as="alternateBounds" />
          </mxGeometry>
        </mxCell>
        <mxCell id="NrHLCTWZxOmj00U2dats-17" value="medico_rut varchar (20) NOT NULL" style="shape=partialRectangle;connectable=0;fillColor=none;top=0;left=0;bottom=0;right=0;align=left;spacingLeft=6;overflow=hidden;whiteSpace=wrap;html=1;fontStyle=1" vertex="1" parent="NrHLCTWZxOmj00U2dats-15">
          <mxGeometry x="30" width="265" height="30" as="geometry">
            <mxRectangle width="265" height="30" as="alternateBounds" />
          </mxGeometry>
        </mxCell>
        <mxCell id="MTo1OBXcnivIiBtlRkqN-42" value="" style="shape=tableRow;horizontal=0;startSize=0;swimlaneHead=0;swimlaneBody=0;fillColor=none;collapsible=0;dropTarget=0;points=[[0,0.5],[1,0.5]];portConstraint=eastwest;top=0;left=0;right=0;bottom=0;" parent="MTo1OBXcnivIiBtlRkqN-32" vertex="1">
          <mxGeometry y="120" width="295" height="30" as="geometry" />
        </mxCell>
        <mxCell id="MTo1OBXcnivIiBtlRkqN-43" value="" style="shape=partialRectangle;connectable=0;fillColor=none;top=0;left=0;bottom=0;right=0;editable=1;overflow=hidden;whiteSpace=wrap;html=1;" parent="MTo1OBXcnivIiBtlRkqN-42" vertex="1">
          <mxGeometry width="30" height="30" as="geometry">
            <mxRectangle width="30" height="30" as="alternateBounds" />
          </mxGeometry>
        </mxCell>
        <mxCell id="MTo1OBXcnivIiBtlRkqN-44" value="numero_box int NOT NULL" style="shape=partialRectangle;connectable=0;fillColor=none;top=0;left=0;bottom=0;right=0;align=left;spacingLeft=6;overflow=hidden;whiteSpace=wrap;html=1;" parent="MTo1OBXcnivIiBtlRkqN-42" vertex="1">
          <mxGeometry x="30" width="265" height="30" as="geometry">
            <mxRectangle width="265" height="30" as="alternateBounds" />
          </mxGeometry>
        </mxCell>
        <mxCell id="MTo1OBXcnivIiBtlRkqN-36" value="" style="shape=tableRow;horizontal=0;startSize=0;swimlaneHead=0;swimlaneBody=0;fillColor=none;collapsible=0;dropTarget=0;points=[[0,0.5],[1,0.5]];portConstraint=eastwest;top=0;left=0;right=0;bottom=0;" parent="MTo1OBXcnivIiBtlRkqN-32" vertex="1">
          <mxGeometry y="150" width="295" height="30" as="geometry" />
        </mxCell>
        <mxCell id="MTo1OBXcnivIiBtlRkqN-37" value="" style="shape=partialRectangle;connectable=0;fillColor=none;top=0;left=0;bottom=0;right=0;editable=1;overflow=hidden;whiteSpace=wrap;html=1;" parent="MTo1OBXcnivIiBtlRkqN-36" vertex="1">
          <mxGeometry width="30" height="30" as="geometry">
            <mxRectangle width="30" height="30" as="alternateBounds" />
          </mxGeometry>
        </mxCell>
        <mxCell id="MTo1OBXcnivIiBtlRkqN-38" value="fecha timestamp NOT NULL" style="shape=partialRectangle;connectable=0;fillColor=none;top=0;left=0;bottom=0;right=0;align=left;spacingLeft=6;overflow=hidden;whiteSpace=wrap;html=1;" parent="MTo1OBXcnivIiBtlRkqN-36" vertex="1">
          <mxGeometry x="30" width="265" height="30" as="geometry">
            <mxRectangle width="265" height="30" as="alternateBounds" />
          </mxGeometry>
        </mxCell>
        <mxCell id="NrHLCTWZxOmj00U2dats-18" value="" style="shape=tableRow;horizontal=0;startSize=0;swimlaneHead=0;swimlaneBody=0;fillColor=none;collapsible=0;dropTarget=0;points=[[0,0.5],[1,0.5]];portConstraint=eastwest;top=0;left=0;right=0;bottom=0;" vertex="1" parent="MTo1OBXcnivIiBtlRkqN-32">
          <mxGeometry y="180" width="295" height="30" as="geometry" />
        </mxCell>
        <mxCell id="NrHLCTWZxOmj00U2dats-19" value="" style="shape=partialRectangle;connectable=0;fillColor=none;top=0;left=0;bottom=0;right=0;editable=1;overflow=hidden;whiteSpace=wrap;html=1;" vertex="1" parent="NrHLCTWZxOmj00U2dats-18">
          <mxGeometry width="30" height="30" as="geometry">
            <mxRectangle width="30" height="30" as="alternateBounds" />
          </mxGeometry>
        </mxCell>
        <mxCell id="NrHLCTWZxOmj00U2dats-20" value="" style="shape=partialRectangle;connectable=0;fillColor=none;top=0;left=0;bottom=0;right=0;align=left;spacingLeft=6;overflow=hidden;whiteSpace=wrap;html=1;" vertex="1" parent="NrHLCTWZxOmj00U2dats-18">
          <mxGeometry x="30" width="265" height="30" as="geometry">
            <mxRectangle width="265" height="30" as="alternateBounds" />
          </mxGeometry>
        </mxCell>
        <mxCell id="MTo1OBXcnivIiBtlRkqN-45" value="" style="endArrow=none;html=1;rounded=0;exitX=1;exitY=0.75;exitDx=0;exitDy=0;entryX=0;entryY=0;entryDx=0;entryDy=0;" parent="1" source="ZoUqYp7l9cibLKx-FxY3-1" target="MTo1OBXcnivIiBtlRkqN-1" edge="1">
          <mxGeometry relative="1" as="geometry">
            <mxPoint x="-120" y="385" as="sourcePoint" />
            <mxPoint x="40" y="385" as="targetPoint" />
          </mxGeometry>
        </mxCell>
        <mxCell id="MTo1OBXcnivIiBtlRkqN-46" value="" style="endArrow=none;html=1;rounded=0;entryX=0.067;entryY=0.017;entryDx=0;entryDy=0;entryPerimeter=0;exitX=1;exitY=1;exitDx=0;exitDy=0;" parent="1" source="MTo1OBXcnivIiBtlRkqN-1" target="ZoUqYp7l9cibLKx-FxY3-56" edge="1">
          <mxGeometry relative="1" as="geometry">
            <mxPoint x="-120" y="385" as="sourcePoint" />
            <mxPoint x="40" y="385" as="targetPoint" />
          </mxGeometry>
        </mxCell>
        <mxCell id="MTo1OBXcnivIiBtlRkqN-53" value="" style="edgeStyle=orthogonalEdgeStyle;rounded=0;orthogonalLoop=1;jettySize=auto;html=1;entryX=0.417;entryY=0;entryDx=0;entryDy=0;entryPerimeter=0;" parent="1" source="MTo1OBXcnivIiBtlRkqN-47" target="MTo1OBXcnivIiBtlRkqN-1" edge="1">
          <mxGeometry relative="1" as="geometry" />
        </mxCell>
        <mxCell id="MTo1OBXcnivIiBtlRkqN-47" value="Diagnostico" style="ellipse;whiteSpace=wrap;html=1;" parent="1" vertex="1">
          <mxGeometry x="-10" y="305" width="85" height="50" as="geometry" />
        </mxCell>
        <mxCell id="MTo1OBXcnivIiBtlRkqN-52" value="" style="edgeStyle=orthogonalEdgeStyle;rounded=0;orthogonalLoop=1;jettySize=auto;html=1;" parent="1" source="MTo1OBXcnivIiBtlRkqN-48" target="MTo1OBXcnivIiBtlRkqN-1" edge="1">
          <mxGeometry relative="1" as="geometry" />
        </mxCell>
        <mxCell id="MTo1OBXcnivIiBtlRkqN-48" value="Codigo" style="ellipse;whiteSpace=wrap;html=1;" parent="1" vertex="1">
          <mxGeometry x="-322.5" y="360" width="85" height="50" as="geometry" />
        </mxCell>
        <mxCell id="MTo1OBXcnivIiBtlRkqN-54" value="" style="edgeStyle=orthogonalEdgeStyle;rounded=0;orthogonalLoop=1;jettySize=auto;html=1;" parent="1" source="MTo1OBXcnivIiBtlRkqN-49" target="MTo1OBXcnivIiBtlRkqN-1" edge="1">
          <mxGeometry relative="1" as="geometry" />
        </mxCell>
        <mxCell id="MTo1OBXcnivIiBtlRkqN-49" value="Fecha termino" style="ellipse;whiteSpace=wrap;html=1;" parent="1" vertex="1">
          <mxGeometry x="65" y="375" width="70" height="50" as="geometry" />
        </mxCell>
        <mxCell id="MTo1OBXcnivIiBtlRkqN-50" value="Fecha inicio" style="ellipse;whiteSpace=wrap;html=1;" parent="1" vertex="1">
          <mxGeometry x="-182.5" y="470" width="75" height="60" as="geometry" />
        </mxCell>
        <mxCell id="MTo1OBXcnivIiBtlRkqN-51" value="" style="endArrow=classic;html=1;rounded=0;entryX=0;entryY=1;entryDx=0;entryDy=0;" parent="1" source="MTo1OBXcnivIiBtlRkqN-50" target="MTo1OBXcnivIiBtlRkqN-1" edge="1">
          <mxGeometry width="50" height="50" relative="1" as="geometry">
            <mxPoint x="-95" y="495" as="sourcePoint" />
            <mxPoint x="-45" y="445" as="targetPoint" />
          </mxGeometry>
        </mxCell>
        <mxCell id="NrHLCTWZxOmj00U2dats-2" style="edgeStyle=orthogonalEdgeStyle;rounded=0;orthogonalLoop=1;jettySize=auto;html=1;entryX=0;entryY=0.5;entryDx=0;entryDy=0;" edge="1" parent="1" source="NrHLCTWZxOmj00U2dats-1" target="ZoUqYp7l9cibLKx-FxY3-55">
          <mxGeometry relative="1" as="geometry" />
        </mxCell>
        <mxCell id="NrHLCTWZxOmj00U2dats-1" value="Hora de atención" style="ellipse;whiteSpace=wrap;html=1;" vertex="1" parent="1">
          <mxGeometry x="-820" y="620" width="120" height="80" as="geometry" />
        </mxCell>
        <mxCell id="NrHLCTWZxOmj00U2dats-4" value="" style="edgeStyle=orthogonalEdgeStyle;rounded=0;orthogonalLoop=1;jettySize=auto;html=1;" edge="1" parent="1" source="NrHLCTWZxOmj00U2dats-3" target="ZoUqYp7l9cibLKx-FxY3-55">
          <mxGeometry relative="1" as="geometry">
            <Array as="points">
              <mxPoint x="-695" y="530" />
              <mxPoint x="-695" y="540" />
            </Array>
          </mxGeometry>
        </mxCell>
        <mxCell id="NrHLCTWZxOmj00U2dats-3" value="Numero de box" style="ellipse;whiteSpace=wrap;html=1;" vertex="1" parent="1">
          <mxGeometry x="-850" y="490" width="120" height="80" as="geometry" />
        </mxCell>
        <mxCell id="NrHLCTWZxOmj00U2dats-5" value="0" style="text;html=1;strokeColor=none;fillColor=none;align=center;verticalAlign=middle;whiteSpace=wrap;rounded=0;" vertex="1" parent="1">
          <mxGeometry x="-524" y="225" width="60" height="30" as="geometry" />
        </mxCell>
        <mxCell id="NrHLCTWZxOmj00U2dats-7" value="n" style="text;html=1;strokeColor=none;fillColor=none;align=center;verticalAlign=middle;whiteSpace=wrap;rounded=0;" vertex="1" parent="1">
          <mxGeometry x="-175" y="330" width="60" height="30" as="geometry" />
        </mxCell>
        <mxCell id="NrHLCTWZxOmj00U2dats-10" value="0" style="text;html=1;strokeColor=none;fillColor=none;align=center;verticalAlign=middle;whiteSpace=wrap;rounded=0;" vertex="1" parent="1">
          <mxGeometry x="135" y="510" width="60" height="30" as="geometry" />
        </mxCell>
        <mxCell id="NrHLCTWZxOmj00U2dats-11" value="n" style="text;html=1;strokeColor=none;fillColor=none;align=center;verticalAlign=middle;whiteSpace=wrap;rounded=0;" vertex="1" parent="1">
          <mxGeometry x="-40" y="430" width="60" height="30" as="geometry" />
        </mxCell>
        <mxCell id="NrHLCTWZxOmj00U2dats-13" value="" style="edgeStyle=entityRelationEdgeStyle;fontSize=12;html=1;endArrow=ERmany;rounded=0;exitX=1;exitY=0.5;exitDx=0;exitDy=0;" edge="1" parent="1" source="ZoUqYp7l9cibLKx-FxY3-18" target="NrHLCTWZxOmj00U2dats-15">
          <mxGeometry width="100" height="100" relative="1" as="geometry">
            <mxPoint x="-120" y="820" as="sourcePoint" />
            <mxPoint x="29" y="1135" as="targetPoint" />
          </mxGeometry>
        </mxCell>
        <mxCell id="NrHLCTWZxOmj00U2dats-37" value="" style="edgeStyle=entityRelationEdgeStyle;fontSize=12;html=1;endArrow=ERmany;rounded=0;entryX=1;entryY=0.5;entryDx=0;entryDy=0;" edge="1" parent="1" source="MTo1OBXcnivIiBtlRkqN-23" target="MTo1OBXcnivIiBtlRkqN-39">
          <mxGeometry width="100" height="100" relative="1" as="geometry">
            <mxPoint x="20" y="1190" as="sourcePoint" />
            <mxPoint x="120" y="1090" as="targetPoint" />
          </mxGeometry>
        </mxCell>
        <mxCell id="NrHLCTWZxOmj00U2dats-38" value="" style="endArrow=none;html=1;rounded=0;entryX=0.5;entryY=1;entryDx=0;entryDy=0;exitX=0.5;exitY=0;exitDx=0;exitDy=0;" edge="1" parent="1" source="ZoUqYp7l9cibLKx-FxY3-55" target="ZoUqYp7l9cibLKx-FxY3-62">
          <mxGeometry width="50" height="50" relative="1" as="geometry">
            <mxPoint x="-590" y="530" as="sourcePoint" />
            <mxPoint x="-590" y="245" as="targetPoint" />
          </mxGeometry>
        </mxCell>
        <mxCell id="ZoUqYp7l9cibLKx-FxY3-62" value="1" style="text;html=1;strokeColor=none;fillColor=none;align=center;verticalAlign=middle;whiteSpace=wrap;rounded=0;" parent="1" vertex="1">
          <mxGeometry x="-619" y="245" width="60" height="30" as="geometry" />
        </mxCell>
        <mxCell id="NrHLCTWZxOmj00U2dats-39" value="" style="edgeStyle=entityRelationEdgeStyle;fontSize=12;html=1;endArrow=ERmany;rounded=0;exitX=0;exitY=0.5;exitDx=0;exitDy=0;" edge="1" parent="1" source="MTo1OBXcnivIiBtlRkqN-26" target="MTo1OBXcnivIiBtlRkqN-6">
          <mxGeometry width="100" height="100" relative="1" as="geometry">
            <mxPoint x="20" y="1020" as="sourcePoint" />
            <mxPoint x="100" y="1280" as="targetPoint" />
          </mxGeometry>
        </mxCell>
        <mxCell id="NrHLCTWZxOmj00U2dats-58" value="" style="edgeStyle=entityRelationEdgeStyle;fontSize=12;html=1;endArrow=ERmany;rounded=0;entryX=0;entryY=0.5;entryDx=0;entryDy=0;" edge="1" parent="1" source="ZoUqYp7l9cibLKx-FxY3-21" target="NrHLCTWZxOmj00U2dats-55">
          <mxGeometry width="100" height="100" relative="1" as="geometry">
            <mxPoint x="20" y="1020" as="sourcePoint" />
            <mxPoint x="120" y="920" as="targetPoint" />
          </mxGeometry>
        </mxCell>
        <mxCell id="NrHLCTWZxOmj00U2dats-62" value="&lt;p&gt;create table pacientes (&lt;/p&gt;&lt;p&gt;rut varchar (50) PRIMARY KEY, &lt;br&gt;&lt;/p&gt;&lt;p&gt;nombre varchar (50) NOT NULL,&lt;/p&gt;&lt;p&gt;direccion varchar (100) NOT NULL,&lt;/p&gt;&lt;p&gt;);&lt;br&gt;&lt;/p&gt;" style="text;html=1;strokeColor=none;fillColor=none;spacing=5;spacingTop=-20;whiteSpace=wrap;overflow=hidden;rounded=0;" vertex="1" parent="1">
          <mxGeometry x="-280" y="1680" width="459" height="210" as="geometry" />
        </mxCell>
        <mxCell id="NrHLCTWZxOmj00U2dats-63" value="&lt;p&gt;create table consultas(&lt;/p&gt;&lt;p&gt;id int PRIMARY KEY, &lt;br&gt;&lt;/p&gt;&lt;p&gt;paciente_rut varchar (20) NOT NULL,&lt;/p&gt;&lt;p&gt;medico_rut varchar (20) NOT NULL,&lt;/p&gt;&lt;p&gt;numero_box int NOT NULL,&lt;/p&gt;&lt;p&gt;fecha timestamp NOT NULL,&lt;/p&gt;&lt;p&gt;FOREIGN KEY (paciente_rut) REFERENCES pacientes(rut),&lt;/p&gt;&lt;p&gt;FOREIGN KEY (medico_rut) REFERENCES medicos(rut)&lt;/p&gt;&lt;p&gt;);&lt;br&gt;&lt;/p&gt;" style="text;html=1;strokeColor=none;fillColor=none;spacing=5;spacingTop=-20;whiteSpace=wrap;overflow=hidden;rounded=0;" vertex="1" parent="1">
          <mxGeometry x="-290" y="1930" width="470" height="260" as="geometry" />
        </mxCell>
        <mxCell id="NrHLCTWZxOmj00U2dats-64" value="&lt;p&gt;create table licencias(&lt;/p&gt;&lt;p&gt;codigo int PRIMARY KEY, &lt;br&gt;&lt;/p&gt;&lt;p&gt;paciente_rut varchar (20) NOT NULL,&lt;/p&gt;&lt;p&gt;medico_rut varchar (20) NOT NULL,&lt;/p&gt;&lt;p&gt;fecha_inicio int NOT NULL,&lt;/p&gt;&lt;p&gt;fecha_termino NOT NULL,&lt;/p&gt;&lt;p&gt;diagnostico varchar NOT NULL,&lt;br&gt;&lt;/p&gt;&lt;p&gt;FOREIGN KEY (paciente_rut) REFERENCES pacientes(rut),&lt;/p&gt;&lt;p&gt;FOREIGN KEY (medico_rut) REFERENCES medicos(rut)&lt;/p&gt;&lt;p&gt;);&lt;br&gt;&lt;/p&gt;" style="text;html=1;strokeColor=none;fillColor=none;spacing=5;spacingTop=-20;whiteSpace=wrap;overflow=hidden;rounded=0;" vertex="1" parent="1">
          <mxGeometry x="220" y="1650" width="450" height="290" as="geometry" />
        </mxCell>
      </root>
    </mxGraphModel>
  </diagram>
</mxfile>
